<svg width="110" height="16" viewBox="0 0 110 16" fill="none" xmlns="http://www.w3.org/2000/svg">
<path d="M0.378876 15.3703V13.8079L1.98161 13.5026V2.48512L0.378876 2.17986V0.609375H5.64099L9.97119 11.2815H10.0314L14.2291 0.609375H19.5515V2.17986L17.9407 2.48512V13.5026L19.5515 13.8079V15.3703H13.7832V13.8079L15.4743 13.5026V10.0684L15.4944 3.61379L15.4422 3.60173L10.871 15.0329H9.01517L4.3114 3.66199L4.25918 3.67403L4.39174 9.89573V13.5026L6.14712 13.8079V15.3703H0.378876Z" fill="#FDF2EC"/>
<path d="M35.2602 13.6553L30.436 0.609375H27.9535L23.069 13.6553L21.9925 13.8079V15.3663H26.6882V13.8079L25.6237 13.6151L26.1981 11.9402L27.0979 9.33742H27.0899L27.3349 8.64657L29.0059 3.89494L29.1505 3.47722H29.2108L29.3434 3.87486L31.2594 9.33742H31.2474L31.9142 11.2935H31.9182L32.1351 11.9402L32.6975 13.6151L31.645 13.8079V15.3663H36.3367V13.8079L35.2602 13.6553Z" fill="#FDF2EC"/>
<path d="M38.7777 15.3703V13.8079L40.3885 13.5026V2.48512L38.7777 2.17986V0.609375H44.6785V2.17986L42.9432 2.48512V13.4102H47.5546L47.7273 11.181H49.6835V15.3663H38.7777V15.3703Z" fill="#FDF2EC"/>
<path d="M52.1246 15.3703V13.8079L53.7353 13.5026V2.48512L52.1246 2.17986V0.609375H57.9008V2.17986L56.2901 2.48512V7.08814H62.7452V2.48512L61.1344 2.17986V0.609375H66.9027V2.17986L65.2919 2.48512V13.5026L66.9027 13.8079V15.3703H61.1344V13.8079L62.7452 13.5026V9.07233H56.2901V13.5026L57.9008 13.8079V15.3703H52.1246Z" fill="#FDF2EC"/>
<path d="M69.3437 15.3703V13.8079L70.9545 13.5026V2.48512L69.3437 2.17986V0.609375H80.5869V4.40907H78.5986L78.4259 2.57349H73.5092V6.75074H78.687V8.7269H73.5092V13.4183H78.699L78.8717 11.5425H80.84V15.3623H69.3437V15.3703Z" fill="#FDF2EC"/>
<path d="M86.7797 15.3703V13.8079L88.3905 13.5026V2.56546H85.422L85.197 4.44923H83.281V0.609375H96.0627V4.44923H94.1386L93.9137 2.56546H90.9452V13.5026L92.556 13.8079V15.3703H86.7797Z" fill="#FDF2EC"/>
<path d="M98.5037 15.3703V13.8079L100.114 13.5026V2.48512L98.5037 2.17986V0.609375H109.747V4.40907H107.759L107.586 2.57349H102.669V6.75074H107.847V8.72691H102.669V13.4183H107.859L108.032 11.5425H110V15.3623H98.5037V15.3703Z" fill="#F3BA96"/>
</svg>
